<?xml version="1.0" encoding="UTF-8" standalone="no"?><!DOCTYPE svg PUBLIC "-//W3C//DTD SVG 1.1//EN" "http://www.w3.org/Graphics/SVG/1.1/DTD/svg11.dtd"><svg width="100%" height="100%" viewBox="0 0 319 226" version="1.1" xmlns="http://www.w3.org/2000/svg" xmlns:xlink="http://www.w3.org/1999/xlink" xml:space="preserve" xmlns:serif="http://www.serif.com/" style="fill-rule:evenodd;clip-rule:evenodd;stroke-linejoin:round;stroke-miterlimit:1.41421;"><g><path d="M270.976,42.68l-85.826,-4.587l53.208,14.53l32.618,-9.943" style="fill:#2f2f2f;"/><path d="M0,145.223l52.719,-92.6l63.14,57.149l-115.859,35.451" style="fill:#343434;"/><path d="M127.95,69.191l-75.231,-16.568l63.14,57.149l12.091,-40.581" style="fill:#2f2f2f;"/><path d="M127.95,69.191l-75.231,-16.568l25.916,-52.623l49.315,69.191" style="fill:#343434;"/><path d="M127.95,69.191l139.12,40.581l-28.712,-57.149l-110.408,16.568" style="fill:#2f2f2f;"/><path d="M303.593,79.103l-36.523,30.669l-28.712,-57.149l65.235,26.48" style="fill:#343434;"/><path d="M303.593,79.103l-56.284,-72.846l-8.951,46.366l65.235,26.48" style="fill:#272727;"/><path d="M303.593,79.103l-56.284,-72.846l71.655,56.128l-15.371,16.718" style="fill:#2f2f2f;"/><path d="M303.593,79.103l-36.523,30.669l51.894,44.939l-15.371,-75.608" style="fill:#272727;"/><path d="M303.593,79.103l15.371,-16.719l0,92.327l-15.371,-75.608" style="fill:#343434;"/><path d="M267.07,190.3l0,-80.528l51.894,44.939l-51.894,35.589" style="fill:#343434;"/><path d="M127.95,69.191l57.2,-31.098l53.208,14.53l-110.408,16.568" style="fill:#343434;"/><path d="M127.95,69.191l57.2,-31.098l-51.094,18.439l-6.106,12.659" style="fill:#2f2f2f;"/><path d="M127.95,69.191l-49.315,-69.191l55.421,56.532l-6.106,12.659" style="fill:#272727;"/><path d="M127.95,69.191l18.861,-24.391l-30.952,64.972l12.091,-40.581" style="fill:#343434;"/><path d="M0,145.223l103.703,9.488l12.156,-44.939l-115.859,35.451" style="fill:#2f2f2f;"/><path d="M189.92,154.711l-86.217,0l12.156,-44.939l74.061,44.939" style="fill:#343434;"/><path d="M189.92,154.711l96.876,-9.488l-170.937,-35.451l74.061,44.939" style="fill:#2f2f2f;"/><path d="M146.811,44.8l139.985,100.423l-170.937,-35.451l30.952,-64.972" style="fill:#272727;"/><path d="M146.811,44.8l139.985,100.423l-19.712,-35.451l-120.273,-64.972" style="fill:#343434;"/><path d="M189.92,154.711l96.876,-9.488l-60.551,55.416l-36.325,-45.928" style="fill:#272727;"/><path d="M267.07,190.3l19.726,-45.077l-60.551,55.416l40.825,-10.339" style="fill:#2f2f2f;"/><path d="M189.92,154.711l-151.669,71.178l187.994,-25.25l-36.325,-45.928" style="fill:#343434;"/><path d="M201.328,216.9l-163.077,8.989l187.994,-25.25l-24.917,16.261" style="fill:#272727;"/><path d="M189.92,154.711l-109.149,56.208l22.932,-56.208l86.217,0" style="fill:#2f2f2f;"/><path d="M38.251,225.889l42.52,-14.97l22.932,-56.208l-65.452,71.178" style="fill:#2f2f2f;"/></g></svg>